<svg width="24" height="24" viewBox="0 0 24 24" xmlns="http://www.w3.org/2000/svg"><line x1="12" y1="12" x2="21" y2="12" stroke="#ffffff" stroke-width="1.5"/><line x1="12" y1="12" x2="18.36396103067893" y2="18.36396103067893" stroke="#ffffff" stroke-width="1.5"/><line x1="12" y1="12" x2="12" y2="21" stroke="#ffffff" stroke-width="1.5"/><line x1="12" y1="12" x2="5.636038969321072" y2="18.36396103067893" stroke="#ffffff" stroke-width="1.5"/><line x1="12" y1="12" x2="3" y2="12.000000000000002" stroke="#ffffff" stroke-width="1.5"/><line x1="12" y1="12" x2="5.636038969321071" y2="5.636038969321072" stroke="#ffffff" stroke-width="1.5"/><line x1="12" y1="12" x2="11.999999999999998" y2="3" stroke="#ffffff" stroke-width="1.5"/><line x1="12" y1="12" x2="18.363961030678926" y2="5.636038969321071" stroke="#ffffff" stroke-width="1.5"/><circle cx="21" cy="12" r="2" fill="#ffffff"/><circle cx="18.36396103067893" cy="18.36396103067893" r="2" fill="#ffffff"/><circle cx="12" cy="21" r="2" fill="#ffffff"/><circle cx="5.636038969321072" cy="18.36396103067893" r="2" fill="#ffffff"/><circle cx="3" cy="12.000000000000002" r="2" fill="#ffffff"/><circle cx="5.636038969321071" cy="5.636038969321072" r="2" fill="#ffffff"/><circle cx="11.999999999999998" cy="3" r="2" fill="#ffffff"/><circle cx="18.363961030678926" cy="5.636038969321071" r="2" fill="#ffffff"/><circle cx="12" cy="12" r="4" fill="#ffffff"/></svg>